<?xml version="1.0" encoding="UTF-8"?>
<svg width="14px" height="16px" viewBox="0 0 14 16" version="1.1" xmlns="http://www.w3.org/2000/svg" xmlns:xlink="http://www.w3.org/1999/xlink">
    <!-- Generator: Sketch 51.1 (57501) - http://www.bohemiancoding.com/sketch -->
    <title>icon-gym</title>
    <desc>Created with Sketch.</desc>
    <defs></defs>
    <g id="Page-1" stroke="none" stroke-width="1" fill="none" fill-rule="evenodd">
        <g id="icon-gym" transform="translate(-2.000000, -1.000000)">
            <g id="icon/building">
                <g id="icon_building">
                    <rect id="Rectangle-4" x="0" y="0" width="18" height="18"></rect>
                    <g id="icon_gym" transform="translate(2.571429, 1.714286)" fill="#8C8C8C">
                        <path d="M0,0 L12.8571429,0 L12.8571429,14.5714286 L0,14.5714286 L0,0 Z M3.07000732,5.91425432 L3.07000732,8.4856829 L5.82647868,8.4856829 L5.82647868,5.91425432 L3.07000732,5.91425432 Z M7.01845715,5.91425432 L7.01845715,8.4856829 L9.7749285,8.4856829 L9.7749285,5.91425432 L7.01845715,5.91425432 Z M3.07000732,2.05711147 L3.07000732,4.62854004 L5.82647868,4.62854004 L5.82647868,2.05711147 L3.07000732,2.05711147 Z M7.01845715,2.05711147 L7.01845715,4.62854004 L9.7749285,4.62854004 L9.7749285,2.05711147 L7.01845715,2.05711147 Z M4.71428571,10.5428467 L8.05714294,10.5428467 L8.05714294,14.5714494 L4.71428571,14.5714494 L4.71428571,10.5428467 Z" id="Combined-Shape"></path>
                    </g>
                </g>
            </g>
        </g>
    </g>
</svg>