<svg xmlns="http://www.w3.org/2000/svg" viewBox="0 0 40 40"><circle cx="20" cy="20" r="15.4" fill="#fff"/><path d="M20 0C9 0 0 9 0 20s9 20 20 20 20-9 20-20S31 0 20 0zm10.5 16.3v.6c0 7.8-6.3 14.1-14.1 14-2.7 0-5.3-.8-7.5-2.2 2.6.3 5.3-.4 7.3-2-2.1 0-4-1.4-4.6-3.4.3.1.6.1.9.1.4 0 .9-.1 1.3-.2-2.3-.5-4-2.5-4-4.8v-.1c.7.4 1.5.6 2.2.6-2.2-1.4-2.8-4.3-1.5-6.6 2.5 3.1 6.2 4.9 10.2 5.1-.1-.4-.1-.7-.1-1.1 0-2.7 2.2-4.9 5-4.9 1.4 0 2.6.6 3.6 1.6 1.1-.2 2.2-.6 3.1-1.2-.4 1.1-1.1 2.1-2.2 2.7 1-.1 1.9-.4 2.8-.8-.7 1.1-1.5 1.9-2.4 2.6z" fill-rule="evenodd" clip-rule="evenodd" fill="#1da1f2"/></svg>