<svg xmlns="http://www.w3.org/2000/svg" viewBox="0 0 40 40"><circle cx="20" cy="19.8" r="15.8" fill="#fff"/><path d="M20 0C9 0 0 9 0 20s9 20 20 20 20-9 20-20S31 0 20 0zm-7.5 24.5c0 .2-.2.4-.4.4H6.3c-.1 0-.2 0-.3-.1-.1-.1-.1-.2-.1-.3v-9.1c0-.2.2-.4.4-.4h1.5c.2 0 .4.2.4.4v7.2h4c.2 0 .4.2.4.4l-.1 1.5zm3.5 0c0 .2-.2.4-.4.4h-1.5c-.2 0-.4-.2-.4-.4v-9.1c0-.2.2-.4.4-.4h1.5c.2 0 .4.2.4.4v9.1zm10.1 0c0 .2-.2.4-.4.4H24l-.1-.1-4.2-5.6v5.4c0 .2-.2.4-.4.4h-1.5c-.2 0-.4-.2-.4-.4v-9.2c0-.2.2-.4.4-.4h1.6l4.2 5.6v-5.4c0-.2.2-.4.4-.4h1.5c.2 0 .4.2.4.4l.2 9.3zm7.7-5.6c.2 0 .4.2.4.4v1.5c0 .2-.2.4-.4.4h-4v1.5h4c.2 0 .4.2.4.4v1.5c0 .2-.2.4-.4.4H28c-.1 0-.2 0-.3-.1-.1-.1-.1-.2-.1-.3v-9.1c0-.1 0-.2.1-.3.1-.1.2-.1.3-.1h5.8c.2 0 .4.2.4.4V17c0 .2-.2.4-.4.4h-4v1.5h4z" fill-rule="evenodd" clip-rule="evenodd" fill="#00b900"/></svg>