<svg xmlns="http://www.w3.org/2000/svg" width="720" height="440" viewBox="0 0 720 440"><rect width="720" height="440" fill="#f8eded"/><circle cx="350" cy="220" r="200" fill="#f4dddc"/><g transform="translate(118 103) rotate(-14 83 135)"><rect x="6" y="9" width="165" height="266" rx="8" fill="#b7a1a3" opacity=".25"/><rect width="165" height="266" rx="8" fill="#9fcce0"/><path d="M0 18h165M0 247h165" stroke="white" stroke-width="2" opacity=".6"/><circle cx="82" cy="126" r="54" fill="none" stroke="white" stroke-width="2" opacity=".7"/><text x="47" y="150" font-family="Arial,sans-serif" font-size="83" font-weight="700" fill="#ffffff">✦</text><text x="37" y="223" font-family="Arial,sans-serif" font-size="15" font-weight="700" fill="#ffffff">ARCHIVE</text></g><g transform="translate(277 59) rotate(0 83 135)"><rect x="6" y="9" width="165" height="266" rx="8" fill="#b7a1a3" opacity=".25"/><rect width="165" height="266" rx="8" fill="#c0b1df"/><path d="M0 18h165M0 247h165" stroke="white" stroke-width="2" opacity=".6"/><circle cx="82" cy="126" r="54" fill="none" stroke="white" stroke-width="2" opacity=".7"/><text x="47" y="150" font-family="Arial,sans-serif" font-size="83" font-weight="700" fill="#ffffff">✧</text><text x="37" y="223" font-family="Arial,sans-serif" font-size="15" font-weight="700" fill="#ffffff">ARCHIVE</text></g><g transform="translate(436 106) rotate(14 83 135)"><rect x="6" y="9" width="165" height="266" rx="8" fill="#b7a1a3" opacity=".25"/><rect width="165" height="266" rx="8" fill="#dfb08f"/><path d="M0 18h165M0 247h165" stroke="white" stroke-width="2" opacity=".6"/><circle cx="82" cy="126" r="54" fill="none" stroke="white" stroke-width="2" opacity=".7"/><text x="47" y="150" font-family="Arial,sans-serif" font-size="83" font-weight="700" fill="#ffffff">✦</text><text x="37" y="223" font-family="Arial,sans-serif" font-size="15" font-weight="700" fill="#ffffff">ARCHIVE</text></g><text x="36" y="42" font-family="Arial,sans-serif" font-size="11" font-weight="700" fill="#ac7c81">A CLOSER LOOK</text><text x="531" y="412" font-family="Arial,sans-serif" font-size="10" font-weight="700" fill="#ac7c81">THE PACK ART FILES</text></svg>